<svg xmlns="http://www.w3.org/2000/svg" xmlns:xlink="http://www.w3.org/1999/xlink" width="609" zoomAndPan="magnify" viewBox="0 0 456.75 473.999983" height="632" preserveAspectRatio="xMidYMid meet" version="1.0"><defs><g/><clipPath id="eeed19e419"><path d="M 0 0.128906 L 456.5 0.128906 L 456.5 473.871094 L 0 473.871094 Z M 0 0.128906 " clip-rule="nonzero"/></clipPath><clipPath id="8ace50c63d"><path d="M 5.867188 0.128906 L 450.304688 0.128906 L 450.304688 473.566406 L 5.867188 473.566406 Z M 5.867188 0.128906 " clip-rule="nonzero"/></clipPath><clipPath id="e78580b32d"><path d="M 0.867188 0.128906 L 445.304688 0.128906 L 445.304688 473.566406 L 0.867188 473.566406 Z M 0.867188 0.128906 " clip-rule="nonzero"/></clipPath><clipPath id="9998c7f6d9"><rect x="0" width="446" y="0" height="474"/></clipPath><clipPath id="ffa85e1182"><path d="M 5.867188 0.128906 L 450.371094 0.128906 L 450.371094 473.871094 L 5.867188 473.871094 Z M 5.867188 0.128906 " clip-rule="nonzero"/></clipPath><clipPath id="7a0bbdc9a8"><path d="M 109.855469 55.058594 L 178.820312 55.058594 L 178.820312 113.527344 L 109.855469 113.527344 Z M 109.855469 55.058594 " clip-rule="nonzero"/></clipPath><clipPath id="337652765e"><path d="M 109.855469 151.617188 L 178.820312 151.617188 L 178.820312 210 L 109.855469 210 Z M 109.855469 151.617188 " clip-rule="nonzero"/></clipPath><clipPath id="d23579f157"><path d="M 109.855469 108.292969 L 178.820312 108.292969 L 178.820312 166.761719 L 109.855469 166.761719 Z M 109.855469 108.292969 " clip-rule="nonzero"/></clipPath></defs><g clip-path="url(#eeed19e419)"><path fill="#ffffff" d="M 0 0.128906 L 456.5 0.128906 L 456.5 473.871094 L 0 473.871094 Z M 0 0.128906 " fill-opacity="1" fill-rule="nonzero"/></g><g clip-path="url(#8ace50c63d)"><g transform="matrix(1, 0, 0, 1, 5, -0.00000000000004699)"><g clip-path="url(#9998c7f6d9)"><g clip-path="url(#e78580b32d)"><path fill="#ffffff" d="M 0.867188 0.128906 L 445.304688 0.128906 L 445.304688 474.082031 L 0.867188 474.082031 Z M 0.867188 0.128906 " fill-opacity="1" fill-rule="nonzero"/></g></g></g></g><g clip-path="url(#ffa85e1182)"><path fill="#1a1a1a" d="M 61.445312 270.378906 L 62.878906 60.582031 C 62.890625 56.851562 62.375 54.441406 65.1875 51.871094 L 115.421875 2.382812 C 117.972656 -0.328125 120.339844 0.152344 124.042969 0.152344 L 366.34375 0.152344 C 378.632812 0.152344 388.660156 10.183594 388.660156 22.476562 L 388.660156 138.640625 C 391.867188 153.179688 391.980469 168.457031 388.660156 183.433594 L 388.660156 277.800781 C 392.210938 279.582031 395.050781 281.492188 396.785156 283.453125 C 419.765625 309.464844 408.648438 351.355469 420.171875 370.246094 L 422.230469 373.621094 C 426.324219 372.796875 430.574219 374.589844 432.835938 378.25 L 448.8125 404.105469 C 451.773438 408.894531 450.289062 415.113281 445.515625 418.066406 L 358.226562 472.058594 C 353.152344 475.511719 346.46875 473.902344 343.492188 468.574219 L 328.109375 443.683594 C 324.996094 439.109375 325.972656 433.050781 330.332031 429.769531 L 325.617188 422.035156 C 324.648438 421.4375 323.5625 420.773438 322.46875 420.105469 C 312.25 413.867188 301.136719 407.078125 294.640625 395.796875 L 170.148438 395.796875 C 169.992188 395.863281 169.832031 395.925781 169.667969 395.976562 C 155.617188 401.960938 145.726562 408.390625 138.414062 414.855469 C 133.429688 419.261719 129.605469 423.730469 126.453125 428.109375 C 129.015625 430.679688 129.921875 434.53125 128.597656 438.0625 L 118.015625 466.304688 C 116.183594 471.191406 110.800781 473.691406 105.882812 471.847656 L 12.042969 436.648438 C 7.136719 434.808594 4.679688 429.417969 6.503906 424.507812 L 17.085938 396.265625 C 18.378906 392.8125 21.5 390.484375 25.035156 390.15625 C 27.621094 365.074219 18.363281 352.207031 17.0625 328.917969 C 16.449219 317.917969 18.546875 307.160156 26.699219 299.089844 C 39.109375 286.804688 49.347656 281.832031 61.445312 270.378906 Z M 423.285156 387.527344 L 422.890625 387.761719 L 340.378906 438.800781 L 353.34375 459.785156 L 436.246094 408.507812 Z M 410.828125 379.929688 L 409.0625 377.03125 C 395.128906 354.191406 406.339844 313.90625 387.050781 292.070312 C 384.917969 289.65625 376.761719 286.773438 373.101562 285.582031 C 367.886719 283.882812 362.035156 282.375 356.386719 281.234375 L 370.9375 326.390625 C 376.769531 344.476562 367.71875 359.453125 353.941406 366.121094 C 345.878906 370.019531 334.632812 371.265625 329.976562 362.773438 C 329.53125 361.992188 329.246094 361.105469 329.160156 360.15625 L 325.769531 323.3125 C 324.667969 311.34375 310.132812 306.484375 302.007812 311.039062 C 298.242188 313.152344 295.746094 317.707031 296.566406 325.144531 L 302.667969 380.496094 C 305.363281 394.398438 317.964844 402.097656 329.246094 408.988281 C 331.390625 410.296875 334.703125 411.933594 335.925781 413.941406 L 341.382812 422.886719 Z M 375.609375 272.703125 L 375.609375 215.574219 C 366.382812 230.578125 353.835938 242.5 339.425781 250.871094 L 344.621094 266.988281 C 345.714844 266.636719 346.546875 266.484375 347.6875 266.621094 L 347.691406 266.605469 C 356.210938 267.632812 366.636719 269.894531 375.609375 272.703125 Z M 342.730469 281.277344 L 319.527344 288.761719 L 323.035156 299.648438 C 323.332031 299.796875 323.625 299.949219 323.914062 300.101562 L 346.453125 292.832031 L 342.730469 281.273438 Z M 350.445312 305.21875 L 334.835938 310.253906 C 336.914062 313.648438 338.300781 317.621094 338.71875 322.140625 L 341.878906 356.480469 C 342.695312 355.617188 344.183594 356.375 348.28125 354.390625 C 356.703125 350.316406 362.148438 341.523438 358.550781 330.367188 Z M 308.300781 296.335938 L 305.65625 288.132812 C 304.257812 283.796875 306.585938 279.261719 311.226562 277.761719 L 308.261719 268.558594 L 172.59375 268.558594 C 168.992188 268.558594 166.070312 265.636719 166.070312 262.03125 C 166.070312 258.425781 168.992188 255.503906 172.59375 255.503906 L 243.910156 255.503906 C 224.425781 246.554688 208.8125 232.277344 198.269531 214.808594 L 172.59375 214.808594 C 168.992188 214.808594 166.070312 211.882812 166.070312 208.277344 C 166.070312 204.671875 168.992188 201.75 172.59375 201.75 L 191.59375 201.75 C 186.132812 188.914062 183.273438 175.085938 183.257812 161.054688 L 172.59375 161.054688 C 168.992188 161.054688 166.070312 158.132812 166.070312 154.527344 C 166.070312 150.921875 168.992188 148 172.59375 148 L 184.070312 148 C 185.855469 133.828125 190.597656 119.96875 198.21875 107.304688 L 172.59375 107.304688 C 168.988281 107.304688 166.066406 104.382812 166.066406 100.777344 C 166.066406 97.171875 168.988281 94.25 172.59375 94.25 L 207.511719 94.25 C 220.292969 78.945312 236.980469 67.96875 255.300781 62.0625 C 280.597656 53.898438 309.011719 55.398438 334.546875 68.484375 C 352.082031 77.472656 365.976562 90.753906 375.605469 106.390625 L 375.605469 22.476562 C 375.605469 17.390625 371.425781 13.207031 366.34375 13.207031 L 130.566406 13.207031 L 130.566406 46.902344 C 130.566406 58.453125 121.148438 67.875 109.605469 67.875 L 75.824219 67.875 L 74.539062 255.898438 L 77.710938 251.734375 L 77.707031 251.734375 C 84.617188 242.710938 92.082031 239.507812 98.949219 240.226562 C 107.894531 241.160156 114.207031 248.457031 117.359375 256.675781 C 118.417969 255.9375 119.703125 255.503906 121.089844 255.503906 L 139.023438 255.503906 C 142.628906 255.503906 145.550781 258.425781 145.550781 262.03125 C 145.550781 265.636719 142.628906 268.558594 139.023438 268.558594 L 119.878906 268.445312 C 120.371094 276.246094 118.71875 284.625 114.125 291.894531 L 114.125 291.898438 C 106.789062 303.84375 96.921875 310.96875 86.992188 318.496094 C 104.058594 336.175781 108.949219 354.078125 106.421875 375.246094 C 105.953125 379.148438 111.546875 380.945312 119.511719 381.898438 C 128.539062 382.976562 139.257812 382.742188 149.402344 382.742188 L 289.859375 382.742188 L 289.738281 382.011719 L 289.726562 382.011719 L 283.613281 326.574219 C 283.449219 325.097656 283.371094 323.675781 283.367188 322.308594 L 172.589844 322.308594 C 168.984375 322.308594 166.066406 319.386719 166.066406 315.78125 C 166.066406 312.175781 168.984375 309.253906 172.589844 309.253906 L 286.273438 309.253906 C 290.582031 300.925781 299.195312 296.535156 308.292969 296.335938 Z M 231.300781 131.714844 C 231.160156 132.066406 230.988281 132.402344 230.785156 132.726562 C 223.082031 148.105469 222.25 165.164062 227.152344 180.375 C 232.054688 195.582031 242.6875 208.933594 257.914062 216.90625 C 258.261719 217.046875 258.601562 217.222656 258.921875 217.425781 C 274.292969 225.132812 291.34375 225.964844 306.550781 221.058594 C 321.59375 216.203125 335.765625 205.089844 343.324219 189.785156 C 351.265625 174.273438 352.171875 157.007812 347.210938 141.625 C 342.3125 126.417969 331.679688 113.066406 316.453125 105.09375 C 316.105469 104.953125 315.765625 104.777344 315.441406 104.574219 C 300.074219 96.867188 283.023438 96.035156 267.816406 100.941406 C 252.621094 105.84375 239.273438 116.480469 231.304688 131.714844 Z M 219.492188 126.261719 L 219.46875 126.300781 C 209.890625 145.007812 208.792969 165.824219 214.765625 184.355469 C 220.800781 203.082031 233.699219 218.957031 252.5 228.746094 C 271.199219 238.328125 292.003906 239.425781 310.523438 233.453125 C 328.863281 227.535156 344.972656 214.6875 354.59375 196.28125 C 354.828125 195.917969 355.027344 195.527344 355.1875 195.117188 C 364.496094 176.5625 365.507812 155.984375 359.597656 137.648438 C 353.683594 119.300781 340.84375 103.183594 322.445312 93.558594 C 322.082031 93.324219 321.691406 93.125 321.285156 92.964844 C 302.738281 83.652344 282.171875 82.636719 263.839844 88.550781 C 245.320312 94.523438 229.074219 107.566406 219.492188 126.265625 Z M 375.902344 141.214844 C 375.804688 140.902344 375.730469 140.582031 375.683594 140.253906 C 375.113281 137.835938 374.449219 135.441406 373.6875 133.082031 C 366.550781 110.929688 350.96875 91.503906 328.636719 80.058594 C 306.296875 68.609375 281.429688 67.304688 259.277344 74.449219 C 236.375 81.839844 217.316406 97.972656 206.28125 119.523438 C 200.53125 130.757812 197.339844 142.628906 196.496094 154.476562 L 196.433594 155.449219 C 195.742188 166.84375 197.222656 178.199219 200.675781 188.917969 C 207.945312 211.476562 224.023438 230.949219 245.734375 241.941406 C 268.070312 253.386719 292.9375 254.691406 315.085938 247.546875 C 337.066406 240.457031 356.824219 224.722656 368.085938 202.46875 C 377.765625 183.328125 380.578125 162.152344 375.902344 141.210938 Z M 327.648438 256.746094 C 324.867188 257.921875 322.035156 258.976562 319.164062 259.90625 L 323.609375 273.769531 L 332.238281 270.984375 Z M 115.105469 436.828125 C 114.835938 436.746094 114.566406 436.644531 114.304688 436.527344 L 28.695312 404.417969 C 28.460938 404.347656 28.230469 404.269531 28.003906 404.175781 L 19.933594 425.71875 L 107.089844 458.410156 L 115.167969 436.851562 Z M 114.363281 422.660156 C 121.574219 412.101562 130.351562 403.445312 142.140625 395.78125 C 133.585938 395.785156 125.136719 395.707031 117.988281 394.855469 C 102.484375 393 91.808594 387.691406 93.476562 373.714844 C 94.3125 366.714844 94.535156 358.773438 91.90625 350.351562 C 89.261719 341.875 83.703125 332.679688 72.964844 323.015625 C 69.867188 320.355469 69.707031 315.582031 72.976562 312.921875 C 83.792969 304.125 95.609375 297.125 103.019531 285.0625 L 103.019531 285.066406 C 111.746094 270.867188 104.339844 253.882812 97.628906 253.183594 C 95.074219 252.914062 91.8125 254.738281 88.054688 259.636719 L 88.050781 259.636719 C 74.515625 277.949219 63.789062 285.976562 53.214844 293.894531 C 47.515625 298.160156 41.863281 302.390625 35.875 308.320312 C 30.582031 313.558594 29.652344 320.902344 30.058594 328.203125 C 30.535156 336.71875 32.308594 344.03125 34.074219 351.3125 C 37.066406 363.660156 40.039062 375.933594 37.734375 393.914062 L 114.363281 422.65625 Z M 121.09375 322.308594 L 139.027344 322.308594 C 142.632812 322.308594 145.550781 319.386719 145.550781 315.78125 C 145.550781 312.175781 142.632812 309.253906 139.027344 309.253906 L 121.09375 309.253906 C 117.492188 309.253906 114.570312 312.175781 114.570312 315.78125 C 114.570312 319.386719 117.492188 322.308594 121.09375 322.308594 Z M 121.09375 107.304688 L 139.027344 107.304688 C 142.632812 107.304688 145.550781 104.382812 145.550781 100.777344 C 145.550781 97.171875 142.632812 94.25 139.027344 94.25 L 121.09375 94.25 C 117.492188 94.25 114.570312 97.171875 114.570312 100.777344 C 114.570312 104.382812 117.492188 107.304688 121.09375 107.304688 Z M 121.09375 161.054688 L 139.027344 161.054688 C 142.632812 161.054688 145.550781 158.132812 145.550781 154.527344 C 145.550781 150.921875 142.632812 148 139.027344 148 L 121.09375 148 C 117.492188 148 114.570312 150.921875 114.570312 154.527344 C 114.570312 158.132812 117.492188 161.054688 121.09375 161.054688 Z M 121.09375 214.808594 L 139.027344 214.808594 C 142.632812 214.808594 145.550781 211.882812 145.550781 208.277344 C 145.550781 204.671875 142.632812 201.75 139.027344 201.75 L 121.09375 201.75 C 117.492188 201.75 114.570312 204.671875 114.570312 208.277344 C 114.570312 211.882812 117.492188 214.808594 121.09375 214.808594 Z M 117.519531 46.902344 L 117.519531 18.585938 L 80.742188 54.816406 L 109.609375 54.816406 C 113.949219 54.816406 117.519531 51.242188 117.519531 46.902344 Z M 117.519531 46.902344 " fill-opacity="1" fill-rule="evenodd"/></g><g clip-path="url(#7a0bbdc9a8)"><path fill="#ffbd59" d="M 158.828125 66.21875 C 166.550781 60.703125 174.03125 57.140625 179.132812 55.058594 C 162.492188 66.777344 146.0625 90.261719 138.945312 105.574219 C 134.085938 99.660156 126.039062 89.875 121.210938 83.996094 L 127.058594 71.097656 L 137.152344 86.34375 C 137.324219 86.609375 137.570312 86.742188 137.890625 86.746094 C 138.203125 86.742188 138.453125 86.613281 138.636719 86.359375 C 143.902344 78.800781 150.695312 72.019531 158.828125 66.21875 Z M 153.0625 59.3125 L 153.65625 62.070312 L 150.84375 62.289062 L 150.058594 62.347656 C 149.820312 62.375 149.621094 62.484375 149.46875 62.671875 C 149.316406 62.855469 149.25 63.070312 149.265625 63.3125 C 149.285156 63.550781 149.386719 63.753906 149.566406 63.914062 C 149.746094 64.074219 149.957031 64.152344 150.199219 64.140625 L 154.820312 63.785156 C 154.949219 63.773438 155.070312 63.738281 155.183594 63.675781 C 155.296875 63.613281 155.394531 63.527344 155.472656 63.425781 C 155.546875 63.320312 155.601562 63.203125 155.628906 63.078125 C 155.65625 62.949219 155.65625 62.824219 155.628906 62.695312 L 154.65625 58.167969 C 154.636719 58.046875 154.59375 57.933594 154.527344 57.832031 C 154.460938 57.730469 154.375 57.644531 154.273438 57.574219 C 154.171875 57.507812 154.0625 57.460938 153.941406 57.4375 C 153.820312 57.414062 153.699219 57.414062 153.578125 57.441406 C 153.460938 57.464844 153.351562 57.515625 153.25 57.585938 C 153.148438 57.65625 153.066406 57.742188 153.003906 57.847656 C 152.9375 57.953125 152.898438 58.066406 152.878906 58.1875 C 152.859375 58.308594 152.867188 58.425781 152.898438 58.546875 Z M 118.898438 100.769531 C 120.054688 100.992188 120.421875 99.269531 119.265625 99.007812 L 114.730469 98.058594 C 114.601562 98.03125 114.476562 98.03125 114.347656 98.058594 C 114.222656 98.089844 114.105469 98.140625 114.003906 98.21875 C 113.898438 98.296875 113.816406 98.394531 113.753906 98.507812 C 113.691406 98.621094 113.65625 98.742188 113.648438 98.871094 L 113.316406 103.5 C 113.25 104.675781 115.003906 104.808594 115.105469 103.625 C 115.144531 103.117188 115.328125 100.59375 115.367188 100.03125 Z M 164.703125 76 C 164.136719 76.160156 163.9375 76.777344 164.140625 77.296875 C 164.835938 79.710938 165.183594 82.175781 165.183594 84.6875 C 165.175781 109.511719 133.832031 120.875 117.953125 101.828125 C 117.644531 101.367188 117.003906 101.21875 116.5625 101.570312 C 116.203125 101.882812 116.132812 102.457031 116.441406 102.835938 C 133.328125 123.355469 166.972656 111.269531 166.980469 84.6875 C 166.984375 81.9375 166.597656 79.242188 165.820312 76.605469 C 165.753906 76.367188 165.609375 76.1875 165.390625 76.070312 C 165.167969 75.949219 164.941406 75.925781 164.703125 76 Z M 113.902344 95.269531 C 104.105469 72.257812 128.484375 49.53125 150.734375 60.953125 C 151.21875 61.289062 151.933594 61.308594 152.238281 60.726562 C 152.449219 60.300781 152.304688 59.742188 151.867188 59.507812 C 128.105469 46.972656 101.722656 71.273438 112.25 95.984375 C 112.734375 97.058594 114.359375 96.355469 113.902344 95.269531 Z M 113.902344 95.269531 " fill-opacity="1" fill-rule="nonzero"/></g><g clip-path="url(#337652765e)"><path fill="#ffbd59" d="M 158.828125 162.777344 C 166.550781 157.265625 174.03125 153.699219 179.132812 151.617188 C 162.492188 163.335938 146.0625 186.820312 138.945312 202.132812 C 134.085938 196.21875 126.039062 186.433594 121.210938 180.554688 L 127.058594 167.65625 L 137.152344 182.902344 C 137.324219 183.167969 137.570312 183.300781 137.890625 183.304688 C 138.203125 183.300781 138.453125 183.171875 138.636719 182.917969 C 143.902344 175.359375 150.695312 168.578125 158.828125 162.777344 Z M 153.0625 155.871094 L 153.65625 158.628906 L 150.84375 158.847656 L 150.058594 158.90625 C 149.820312 158.933594 149.621094 159.042969 149.46875 159.230469 C 149.316406 159.414062 149.25 159.628906 149.265625 159.871094 C 149.285156 160.109375 149.386719 160.3125 149.566406 160.472656 C 149.746094 160.632812 149.957031 160.710938 150.199219 160.699219 L 154.820312 160.34375 C 154.949219 160.332031 155.070312 160.296875 155.183594 160.234375 C 155.296875 160.171875 155.394531 160.085938 155.472656 159.984375 C 155.546875 159.878906 155.601562 159.765625 155.628906 159.636719 C 155.65625 159.511719 155.65625 159.382812 155.628906 159.257812 L 154.65625 154.726562 C 154.636719 154.605469 154.59375 154.496094 154.527344 154.390625 C 154.460938 154.289062 154.375 154.203125 154.273438 154.132812 C 154.171875 154.066406 154.0625 154.019531 153.941406 153.996094 C 153.820312 153.972656 153.699219 153.972656 153.578125 154 C 153.460938 154.023438 153.351562 154.074219 153.25 154.144531 C 153.148438 154.214844 153.066406 154.300781 153.003906 154.40625 C 152.9375 154.511719 152.898438 154.625 152.878906 154.746094 C 152.859375 154.867188 152.867188 154.984375 152.898438 155.105469 Z M 118.898438 197.328125 C 120.054688 197.550781 120.421875 195.832031 119.265625 195.566406 L 114.730469 194.617188 C 114.601562 194.589844 114.476562 194.589844 114.347656 194.621094 C 114.222656 194.648438 114.105469 194.699219 114.003906 194.777344 C 113.898438 194.855469 113.816406 194.953125 113.753906 195.066406 C 113.691406 195.179688 113.65625 195.300781 113.648438 195.433594 L 113.316406 200.058594 C 113.25 201.234375 115.003906 201.367188 115.105469 200.1875 C 115.144531 199.675781 115.328125 197.152344 115.367188 196.589844 Z M 164.703125 172.558594 C 164.136719 172.71875 163.9375 173.339844 164.140625 173.855469 C 164.835938 176.269531 165.183594 178.734375 165.183594 181.246094 C 165.175781 206.070312 133.832031 217.433594 117.953125 198.386719 C 117.644531 197.925781 117.003906 197.777344 116.5625 198.128906 C 116.203125 198.441406 116.132812 199.015625 116.441406 199.394531 C 133.328125 219.914062 166.972656 207.828125 166.980469 181.246094 C 166.984375 178.496094 166.597656 175.804688 165.820312 173.164062 C 165.753906 172.925781 165.609375 172.746094 165.390625 172.628906 C 165.167969 172.507812 164.941406 172.484375 164.703125 172.558594 Z M 113.902344 191.828125 C 104.105469 168.816406 128.484375 146.09375 150.734375 157.511719 C 151.21875 157.847656 151.933594 157.867188 152.238281 157.285156 C 152.449219 156.859375 152.304688 156.300781 151.867188 156.066406 C 128.105469 143.53125 101.722656 167.832031 112.25 192.542969 C 112.734375 193.617188 114.359375 192.917969 113.902344 191.828125 Z M 113.902344 191.828125 " fill-opacity="1" fill-rule="nonzero"/></g><g clip-path="url(#d23579f157)"><path fill="#ffbd59" d="M 158.828125 119.449219 C 166.550781 113.9375 174.03125 110.371094 179.132812 108.292969 C 162.492188 120.007812 146.0625 143.496094 138.945312 158.808594 C 134.085938 152.894531 126.039062 143.105469 121.210938 137.230469 L 127.058594 124.328125 L 137.152344 139.578125 C 137.324219 139.84375 137.570312 139.976562 137.890625 139.976562 C 138.203125 139.976562 138.453125 139.847656 138.636719 139.59375 C 143.902344 132.03125 150.695312 125.25 158.828125 119.449219 Z M 153.0625 112.546875 L 153.65625 115.304688 L 150.84375 115.523438 L 150.058594 115.582031 C 149.820312 115.609375 149.621094 115.714844 149.46875 115.902344 C 149.316406 116.089844 149.25 116.304688 149.265625 116.542969 C 149.285156 116.785156 149.386719 116.984375 149.566406 117.148438 C 149.746094 117.308594 149.957031 117.382812 150.199219 117.375 L 154.820312 117.019531 C 154.949219 117.007812 155.070312 116.972656 155.183594 116.90625 C 155.296875 116.84375 155.394531 116.761719 155.472656 116.65625 C 155.546875 116.554688 155.601562 116.4375 155.628906 116.3125 C 155.65625 116.183594 155.65625 116.058594 155.628906 115.929688 L 154.65625 111.402344 C 154.636719 111.28125 154.59375 111.167969 154.527344 111.066406 C 154.460938 110.960938 154.375 110.875 154.273438 110.808594 C 154.171875 110.738281 154.0625 110.691406 153.941406 110.667969 C 153.820312 110.644531 153.699219 110.648438 153.578125 110.671875 C 153.460938 110.699219 153.351562 110.746094 153.25 110.816406 C 153.148438 110.890625 153.066406 110.976562 153.003906 111.082031 C 152.9375 111.183594 152.898438 111.296875 152.878906 111.417969 C 152.859375 111.539062 152.867188 111.660156 152.898438 111.777344 Z M 118.898438 154 C 120.054688 154.226562 120.421875 152.503906 119.265625 152.242188 L 114.730469 151.292969 C 114.601562 151.265625 114.476562 151.265625 114.347656 151.292969 C 114.222656 151.320312 114.105469 151.375 114.003906 151.453125 C 113.898438 151.53125 113.816406 151.625 113.753906 151.742188 C 113.691406 151.855469 113.65625 151.976562 113.648438 152.105469 L 113.316406 156.730469 C 113.25 157.910156 115.003906 158.042969 115.105469 156.859375 C 115.144531 156.351562 115.328125 153.828125 115.367188 153.261719 Z M 164.703125 129.234375 C 164.136719 129.390625 163.9375 130.011719 164.140625 130.527344 C 164.835938 132.945312 165.183594 135.40625 165.183594 137.917969 C 165.175781 162.742188 133.832031 174.109375 117.953125 155.0625 C 117.644531 154.601562 117.003906 154.453125 116.5625 154.800781 C 116.203125 155.117188 116.132812 155.6875 116.441406 156.070312 C 133.328125 176.585938 166.972656 164.503906 166.980469 137.917969 C 166.984375 135.171875 166.597656 132.476562 165.820312 129.839844 C 165.753906 129.601562 165.609375 129.421875 165.390625 129.300781 C 165.167969 129.183594 164.941406 129.160156 164.703125 129.234375 Z M 113.902344 148.503906 C 104.105469 125.492188 128.484375 102.765625 150.734375 114.1875 C 151.21875 114.523438 151.933594 114.539062 152.238281 113.957031 C 152.449219 113.53125 152.304688 112.976562 151.867188 112.742188 C 128.105469 100.207031 101.722656 124.507812 112.25 149.214844 C 112.734375 150.289062 114.359375 149.589844 113.902344 148.503906 Z M 113.902344 148.503906 " fill-opacity="1" fill-rule="nonzero"/></g><g fill="#1a1a1a" fill-opacity="1"><g transform="translate(163.056769, 36.733323)"><g><path d="M 8.84375 -17.125 C 10.070312 -17.125 11.117188 -16.898438 11.984375 -16.453125 C 12.859375 -16.003906 13.515625 -15.375 13.953125 -14.5625 C 14.398438 -13.75 14.625 -12.8125 14.625 -11.75 C 14.625 -10.675781 14.398438 -9.738281 13.953125 -8.9375 C 13.515625 -8.132812 12.859375 -7.503906 11.984375 -7.046875 C 11.117188 -6.597656 10.070312 -6.375 8.84375 -6.375 L 5.609375 -6.375 L 5.609375 0 L 2.21875 0 L 2.21875 -17.125 Z M 8.390625 -9.0625 C 10.273438 -9.0625 11.21875 -9.957031 11.21875 -11.75 C 11.21875 -13.539062 10.273438 -14.4375 8.390625 -14.4375 L 5.609375 -14.4375 L 5.609375 -9.0625 Z M 8.390625 -9.0625 "/></g></g></g><g fill="#1a1a1a" fill-opacity="1"><g transform="translate(178.696813, 36.733323)"><g><path d="M 5.609375 -17.125 L 5.609375 -2.828125 L 13.296875 -2.828125 L 13.296875 0 L 2.21875 0 L 2.21875 -17.125 Z M 5.609375 -17.125 "/></g></g></g><g fill="#1a1a1a" fill-opacity="1"><g transform="translate(192.686241, 36.733323)"><g><path d="M 16.4375 0 L 12.875 0 L 11.578125 -3.953125 L 5.03125 -3.953125 L 3.734375 0 L 0.25 0 L 6.171875 -17.125 L 10.515625 -17.125 Z M 8.140625 -13.546875 L 5.9375 -6.796875 L 10.640625 -6.796875 L 8.4375 -13.546875 Z M 8.140625 -13.546875 "/></g></g></g><g fill="#1a1a1a" fill-opacity="1"><g transform="translate(207.881182, 36.733323)"><g><path d="M 9.375 0 L 6 0 L 6 -6.71875 L 0.078125 -17.125 L 3.71875 -17.125 L 7.625 -10.390625 L 7.921875 -10.390625 L 11.75 -17.125 L 15.296875 -17.125 L 9.375 -6.71875 Z M 9.375 0 "/></g></g></g><g fill="#1a1a1a" fill-opacity="1"><g transform="translate(223.25198, 36.733323)"><g><path d="M 2.21875 0 L 2.21875 -17.125 L 9.53125 -17.125 C 10.582031 -17.125 11.472656 -16.957031 12.203125 -16.625 C 12.929688 -16.289062 13.484375 -15.816406 13.859375 -15.203125 C 14.234375 -14.585938 14.421875 -13.863281 14.421875 -13.03125 C 14.421875 -12.28125 14.238281 -11.613281 13.875 -11.03125 C 13.507812 -10.457031 12.984375 -9.992188 12.296875 -9.640625 L 12.296875 -9.390625 C 13.367188 -9.109375 14.195312 -8.597656 14.78125 -7.859375 C 15.375 -7.117188 15.671875 -6.207031 15.671875 -5.125 C 15.671875 -3.488281 15.175781 -2.222656 14.1875 -1.328125 C 13.195312 -0.441406 11.734375 0 9.796875 0 Z M 8.828125 -10.296875 C 10.410156 -10.296875 11.203125 -11.003906 11.203125 -12.421875 C 11.203125 -13.148438 11.003906 -13.691406 10.609375 -14.046875 C 10.222656 -14.398438 9.628906 -14.578125 8.828125 -14.578125 L 5.609375 -14.578125 L 5.609375 -10.296875 Z M 9.453125 -2.6875 C 11.316406 -2.6875 12.25 -3.53125 12.25 -5.21875 C 12.25 -6.925781 11.316406 -7.78125 9.453125 -7.78125 L 5.609375 -7.78125 L 5.609375 -2.6875 Z M 9.453125 -2.6875 "/></g></g></g><g fill="#1a1a1a" fill-opacity="1"><g transform="translate(239.992446, 36.733323)"><g><path d="M 9.328125 0.25 C 7.765625 0.25 6.382812 -0.0664062 5.1875 -0.703125 C 3.988281 -1.347656 3.046875 -2.328125 2.359375 -3.640625 C 1.679688 -4.960938 1.34375 -6.601562 1.34375 -8.5625 C 1.34375 -10.519531 1.679688 -12.15625 2.359375 -13.46875 C 3.046875 -14.789062 3.988281 -15.769531 5.1875 -16.40625 C 6.382812 -17.050781 7.765625 -17.375 9.328125 -17.375 C 10.898438 -17.375 12.28125 -17.050781 13.46875 -16.40625 C 14.664062 -15.769531 15.601562 -14.789062 16.28125 -13.46875 C 16.957031 -12.15625 17.296875 -10.519531 17.296875 -8.5625 C 17.296875 -6.601562 16.957031 -4.960938 16.28125 -3.640625 C 15.601562 -2.316406 14.664062 -1.335938 13.46875 -0.703125 C 12.28125 -0.0664062 10.898438 0.25 9.328125 0.25 Z M 9.328125 -2.6875 C 10.785156 -2.6875 11.894531 -3.15625 12.65625 -4.09375 C 13.425781 -5.03125 13.8125 -6.519531 13.8125 -8.5625 C 13.8125 -10.601562 13.425781 -12.09375 12.65625 -13.03125 C 11.894531 -13.96875 10.785156 -14.4375 9.328125 -14.4375 C 7.867188 -14.4375 6.753906 -13.96875 5.984375 -13.03125 C 5.222656 -12.09375 4.84375 -10.601562 4.84375 -8.5625 C 4.84375 -6.519531 5.222656 -5.03125 5.984375 -4.09375 C 6.753906 -3.15625 7.867188 -2.6875 9.328125 -2.6875 Z M 9.328125 -2.6875 "/></g></g></g><g fill="#1a1a1a" fill-opacity="1"><g transform="translate(258.641097, 36.733323)"><g><path d="M 9.328125 0.25 C 7.765625 0.25 6.382812 -0.0664062 5.1875 -0.703125 C 3.988281 -1.347656 3.046875 -2.328125 2.359375 -3.640625 C 1.679688 -4.960938 1.34375 -6.601562 1.34375 -8.5625 C 1.34375 -10.519531 1.679688 -12.15625 2.359375 -13.46875 C 3.046875 -14.789062 3.988281 -15.769531 5.1875 -16.40625 C 6.382812 -17.050781 7.765625 -17.375 9.328125 -17.375 C 10.898438 -17.375 12.28125 -17.050781 13.46875 -16.40625 C 14.664062 -15.769531 15.601562 -14.789062 16.28125 -13.46875 C 16.957031 -12.15625 17.296875 -10.519531 17.296875 -8.5625 C 17.296875 -6.601562 16.957031 -4.960938 16.28125 -3.640625 C 15.601562 -2.316406 14.664062 -1.335938 13.46875 -0.703125 C 12.28125 -0.0664062 10.898438 0.25 9.328125 0.25 Z M 9.328125 -2.6875 C 10.785156 -2.6875 11.894531 -3.15625 12.65625 -4.09375 C 13.425781 -5.03125 13.8125 -6.519531 13.8125 -8.5625 C 13.8125 -10.601562 13.425781 -12.09375 12.65625 -13.03125 C 11.894531 -13.96875 10.785156 -14.4375 9.328125 -14.4375 C 7.867188 -14.4375 6.753906 -13.96875 5.984375 -13.03125 C 5.222656 -12.09375 4.84375 -10.601562 4.84375 -8.5625 C 4.84375 -6.519531 5.222656 -5.03125 5.984375 -4.09375 C 6.753906 -3.15625 7.867188 -2.6875 9.328125 -2.6875 Z M 9.328125 -2.6875 "/></g></g></g><g fill="#1a1a1a" fill-opacity="1"><g transform="translate(277.289748, 36.733323)"><g><path d="M 2.21875 0 L 2.21875 -17.125 L 5.609375 -17.125 L 5.609375 -10.125 L 5.984375 -10.125 L 11.703125 -17.125 L 15.171875 -17.125 L 15.171875 -16.828125 L 8.859375 -9.046875 L 15.828125 -0.296875 L 15.828125 0 L 12 0 L 5.984375 -7.390625 L 5.609375 -7.390625 L 5.609375 0 Z M 2.21875 0 "/></g></g></g></svg>